<svg width="88.00000000000001" height="28" xmlns="http://www.w3.org/2000/svg">
 <g>
  <title>background</title>
  <rect x="-1" y="-1" width="90" height="30" id="canvas_background" fill="none"/>
 </g>

 <g>
  <title>Layer 1</title>
  <g stroke="null" id="surface1">
   <path stroke="null" d="m-0.000004,14.896538l0,13.563211l17.173259,0l0,-27.126423l-17.173259,0l0,13.563211zm12.688422,-8.968616c1.656587,1.348412 2.667586,3.604093 3.111366,6.983452c0.444761,3.358548 -0.768045,7.308068 -2.727344,8.806306c-0.80821,0.60762 -1.23338,0.682531 -5.072625,0.682531l-4.182123,0l-0.261567,0.953046l-0.242954,0.953044l-0.969852,-2.426312c-0.544685,-1.298471 -0.909115,-2.51371 -0.808211,-2.638561c0.100905,-0.137338 0.889521,-0.865649 1.737899,-1.598121c1.53609,-1.310957 1.555685,-1.310957 1.373469,-0.520221c-0.120497,0.482766 -0.201807,0.86981 -0.201807,0.932237c0,0.033293 1.435187,0.09572 3.192679,0.120692c2.888006,0.099882 3.231863,0.037455 3.839247,-0.570162c1.757492,-1.718812 1.878968,-5.485214 0.241974,-7.270614c-0.607383,-0.640913 -0.909115,-0.70334 -3.233824,-0.70334l-2.564724,0l-0.344835,2.143312c-0.201807,1.211076 -0.403616,2.388858 -0.443781,2.651048c-0.039186,0.245545 -0.888542,1.136164 -1.877988,1.968518l-1.779044,1.498238l0.36443,-2.293137c0.181236,-1.273502 0.545665,-3.379359 0.767065,-4.694477c0.241974,-1.298474 0.525092,-3.158786 0.667142,-4.086858l0.222381,-1.648063l4.122366,0c3.940151,0 4.161552,0.024971 5.070666,0.757443l0.000001,0l-0.000003,-0.000002l-0.000003,0.000002zm0,0" fill="#fcfcfc" fill-rule="nonzero" id="svg_1"/>
   <path stroke="null" d="m20.295455,14.672677l0,7.811834l1.577236,0c1.836844,0 2.727345,-0.956408 3.41408,-3.679032c0.909115,-3.553374 0.424188,-8.621642 -0.991406,-10.555401c-0.403615,-0.579431 -1.313709,-1.012258 -2.321769,-1.179805l-1.67814,-0.272263l0,7.874665l0,0.000003l-0.000001,-0.000001zm3.454244,-2.953c0.324264,0.712071 0.466314,1.563763 0.466314,2.911112c0,2.617906 -0.506479,3.944314 -1.618381,4.216576l-0.888542,0.167545l0,-8.286549l0.787639,0c0.465333,0 0.969852,0.411884 1.252972,0.991315l-0.000001,0zm0,0" fill="#fcfcfc" fill-rule="nonzero" id="svg_2"/>
   <path stroke="null" d="m26.215478,7.712534c0.060738,0.376979 0.526071,2.408475 1.030592,4.551669c0.849356,3.427714 0.928708,4.132802 0.928708,7.022972l0,3.197337l1.414614,0l0,-2.932057c0,-2.638851 0.101883,-3.322996 1.110923,-7.434856c0.607383,-2.471301 1.111902,-4.677327 1.111902,-4.823927c0,-0.160566 -0.322304,-0.328111 -0.706327,-0.328111c-0.626976,0 -0.789597,0.328111 -1.353876,2.680739c-0.727879,2.883187 -0.910094,3.15545 -1.132475,1.703383c-0.080331,-0.481693 -0.322304,-1.703383 -0.545665,-2.659793c-0.322304,-1.452066 -0.50452,-1.724329 -1.171662,-1.724329c-0.585829,0 -0.768045,0.230375 -0.686734,0.746975l-0.000001,0l0.000001,-0.000001zm0,0" fill="#fcfcfc" fill-rule="nonzero" id="svg_3"/>
   <path stroke="null" d="m32.418619,14.735508l0,7.749005l1.393061,0l0.061718,-4.321291l0.060738,-4.405065l1.211827,4.237518c1.030592,3.53243 1.333303,4.279405 1.879948,4.384122l0.645589,0.167545l0,-15.581784l-1.394041,0l-0.120497,8.558809l-1.274525,-4.279405c-1.070756,-3.637143 -1.332324,-4.279405 -1.858396,-4.279405l-0.605423,0l0,7.769949l0.000001,-0.000001l-0.000001,0.000001zm0,0" fill="#fcfcfc" fill-rule="nonzero" id="svg_4"/>
   <path stroke="null" d="m40.198017,10.560818c-0.324264,2.031496 -0.78764,4.858836 -1.052145,6.415618c-0.9483,5.675624 -0.9483,5.508077 -0.141069,5.508077c0.625996,0 0.748453,-0.209433 0.95026,-1.59867c0.221401,-1.556784 0.283118,-1.59867 1.414613,-1.59867c1.130515,0 1.190275,0.041886 1.413636,1.59867c0.182215,1.326406 0.343856,1.59867 0.888542,1.59867c0.36443,0 0.667142,-0.209433 0.667142,-0.474715c0,-0.481696 -0.403616,-3.267148 -0.989446,-6.757691c-0.201807,-1.15886 -0.566237,-3.53243 -0.827803,-5.235814c-0.444761,-2.778471 -0.526072,-3.050732 -1.111902,-3.050732c-0.607383,0 -0.686734,0.230375 -1.211826,3.595259l-0.000001,-0.000001zm0,0" fill="#fcfcfc" fill-rule="nonzero" id="svg_5"/>
   <path stroke="null" d="m45.148186,14.735508l0,7.749005l1.393061,0l0.061719,-4.384123l0.059757,-4.44695l0.686735,2.848281c0.384022,1.535839 0.747473,2.680739 0.828783,2.408477c0.081311,-0.230378 0.44378,-1.6615 0.787639,-3.113565l0.625996,-2.680739l0,9.368618l1.414614,0l0,-15.518953l-0.706327,0c-0.585829,0 -0.809191,0.328111 -1.313711,2.199041c-0.323284,1.228668 -0.647547,2.680735 -0.7269,3.267149c-0.100905,0.907541 -0.242955,0.579429 -0.910094,-2.206022c-0.706327,-2.987904 -0.827803,-3.260167 -1.494946,-3.260167l-0.706327,0l0,7.769949l-0.000001,-0.000001l0,-0.000001zm0,0" fill="#fcfcfc" fill-rule="nonzero" id="svg_6"/>
   <path stroke="null" d="m53.431125,11.098361c-0.363451,2.282815 -0.807232,5.026381 -0.969853,6.04562c-0.283118,1.808103 -0.646568,4.111861 -0.807231,4.921665c-0.041145,0.272263 0.261567,0.418866 0.665182,0.418866c0.647548,0 0.768045,-0.209433 0.969852,-1.59867c0.22336,-1.556784 0.283118,-1.59867 1.414614,-1.59867c1.132475,0 1.17362,0.041886 1.374449,1.59867c0.183194,1.326406 0.322304,1.59867 0.910094,1.59867c0.725921,0 0.866989,-0.746975 0.482967,-2.555078c-0.120498,-0.495658 -0.523134,-2.953 -0.907156,-5.466191c-1.273545,-7.979383 -1.153048,-7.497687 -1.839783,-7.497687c-0.566237,0 -0.645589,0.272263 -1.293138,4.132802l0.000001,0l0.000001,0.000001zm0,0" fill="#fcfcfc" fill-rule="nonzero" id="svg_7"/>
   <path stroke="null" d="m58.078581,8.836492c0,1.829044 0.019592,1.891872 0.809191,1.891872l0.807232,0l0,11.756149l1.617402,0l0,-11.756149l0.807232,0c0.787639,0 0.808211,-0.062828 0.808211,-1.891872l0,-1.870931l-4.849266,0l0,1.870931l-0.000001,0l-0.000001,0zm0,0" fill="#fcfcfc" fill-rule="nonzero" id="svg_8"/>
   <path stroke="null" d="m63.735079,14.735508l0,7.749005l1.415593,0l0,-15.518953l-1.415593,0l0,7.769949l0,-0.000001zm0,0" fill="#fcfcfc" fill-rule="nonzero" id="svg_9"/>
   <path stroke="null" d="m67.777114,7.942912c-1.516498,1.968664 -2.061183,7.00203 -1.192233,10.799741c0.544685,2.352626 0.888542,3.057716 1.858396,3.741862c0.889521,0.70509 2.162088,-0.104717 2.707752,-1.703385c0.323284,-0.97735 0.323284,-1.082067 -0.060739,-2.101308c-0.384022,-0.956408 -0.44378,-1.012258 -1.010018,-0.202452c-0.787639,1.075088 -1.131495,1.012258 -1.779044,-0.314148c-0.423209,-0.872635 -0.524112,-1.556784 -0.524112,-3.385825c0,-3.532432 0.929687,-5.131098 2.161107,-3.804694c0.667142,0.746976 0.768045,0.746976 1.111902,-0.041886c0.525092,-1.34735 0.443781,-2.136213 -0.324264,-3.113565c-0.888542,-1.123955 -2.060204,-1.061126 -2.948746,0.125661l-0.000001,-0.000001zm0,0" fill="#fcfcfc" fill-rule="nonzero" id="svg_10"/>
   <path stroke="null" d="m73.534515,7.60782c-0.645589,0.914523 -0.909115,2.101308 -0.909115,4.237517c0,2.289797 0.505498,3.53243 1.979872,4.761101c0.585829,0.474715 0.850335,0.956408 0.809191,1.556784c-0.081311,1.16584 -0.849356,1.326406 -1.615442,0.376977c-0.585829,-0.816787 -0.668121,-0.816787 -1.010999,0c-0.526072,1.326407 -0.444761,2.136215 0.302712,3.029792c1.092308,1.354329 1.858396,1.556781 2.626441,0.70509c0.686734,-0.746975 1.353876,-3.092621 1.353876,-4.75412c0,-1.61961 -0.809191,-3.427714 -1.920113,-4.342236c-0.665183,-0.586411 -1.109944,-1.291501 -1.109944,-1.703385c0,-1.249613 0.545665,-1.459046 1.373469,-0.607352c0.72788,0.746975 0.787639,0.746975 1.010999,-0.202452c0.384023,-1.563763 0.302712,-2.101308 -0.465333,-2.953c-0.809191,-0.914522 -1.859376,-0.956408 -2.425613,-0.104715l0,-0.000001l-0.000002,0zm0,0" fill="#fcfcfc" fill-rule="nonzero" id="svg_11"/>
   <path stroke="null" d="m81.5167,11.782507c0,4.237518 0,4.279406 0.50452,4.279406c0.464354,0 0.50452,-0.202452 0.50452,-2.303759l0.021551,-2.240929l0.342878,1.452066c0.182215,0.851691 0.384022,1.493953 0.464354,1.493953c0.061718,0 0.241974,-0.64226 0.404596,-1.493953l0.283118,-1.452066l0.060739,2.240929c0.059758,1.891876 0.141069,2.303759 0.463375,2.303759c0.343856,0 0.384022,-0.369998 0.384022,-4.279406c0,-4.174687 0,-4.279405 -0.50452,-4.279405c-0.36443,0 -0.585829,0.481693 -0.827802,1.703385l-0.343856,1.766213l-0.303692,-1.766213c-0.242954,-1.326407 -0.444761,-1.703385 -0.888542,-1.703385l-0.565259,0l0,4.279405l-0.000001,0l-0.000001,0zm0,0" fill="#fcfcfc" fill-rule="nonzero" id="svg_12"/>
  </g>
 </g>
</svg>