<?xml version='1.0' encoding='UTF-8'?>
<svg viewBox="-2 -2 32 32" xmlns="http://www.w3.org/2000/svg" xmlns:xlink="http://www.w3.org/1999/xlink">
  <g transform="translate(0, 0)">
    <g transform="matrix(0.8468, 0, 0, 0.8468, 0, 0)">
      <g transform="translate(0, 0)">
        <g transform="matrix(1.181, 0, 0, 1.181, 0, 0)">
          <g transform="translate(0, 0)">
            <g transform="matrix(0.875, 0, 0, 0.875, 0, 0)">
              <g transform="translate(0, 0)">
                <g transform="matrix(1.1428, 0, 0, 1.1428, 0, 0)">
                  <g transform="translate(0, 0)">
                    <g transform="matrix(0.875, 0, 0, 0.875, 0, 0)">
                      <g transform="translate(0, 0)">
                        <g transform="matrix(1.1429, 0, 0, 1.1429, 0, 0)">
                          <g transform="translate(0.4516, 0.4516)">
                            <g transform="matrix(0.4516, 0, 0, 0.4516, 0, 0)">
                              <g>
                                <rect x="-1" y="-1" width="62" height="62" rx="0" ry="0" fill="none" id="canvas_background" />
                              </g>
                            </g>
                          </g>
                        </g>
                      </g>
                    </g>
                  </g>
                </g>
              </g>
            </g>
          </g>
        </g>
      </g>
    </g>
  </g>
  <g transform="translate(0, 0)">
    <g transform="matrix(0.8468, 0, 0, 0.8468, 0, 0)">
      <g transform="translate(0, 0)">
        <g transform="matrix(1.181, 0, 0, 1.181, 0, 0)">
          <g transform="translate(0, 0)">
            <g transform="matrix(0.875, 0, 0, 0.875, 0, 0)">
              <g transform="translate(0, 0)">
                <g transform="matrix(1.1428, 0, 0, 1.1428, 0, 0)">
                  <g transform="translate(0, 0)">
                    <g transform="matrix(0.875, 0, 0, 0.875, 0, 0)">
                      <g transform="translate(0, 0)">
                        <g transform="matrix(1.1429, 0, 0, 1.1429, 0, 0)">
                          <g transform="translate(0.4516, 0.4516)">
                            <g transform="matrix(0.4516, 0, 0, 0.4516, 0, 0)">
                              <g>
                                <g id="surface1" stroke="null">
                                  <path d="M2.5039, 30.5312L2.5039, 57.3984L57.4492, 57.3984L57.4492, 3.6601L2.5039, 3.6601L2.5039, 30.5312L2.5039, 30.5312zM43.0985, 12.7642C48.3987, 15.4179 51.631, 19.9086 53.0532, 26.6081C54.4754, 33.2463 50.5966, 41.0886 44.3264, 44.0607C41.7414, 45.261 40.3834, 45.3876 28.1022, 45.3876L14.7208, 45.3876L13.8808, 47.282L13.105, 49.1803L10.002, 44.3752C8.257, 41.7828 7.0933, 39.3822 7.417, 39.1291C7.7398, 38.876 10.2606, 37.4226 12.9758, 35.9653C17.8889, 33.3729 17.9532, 33.3729 17.3718, 34.9567C16.9839, 35.9039 16.7253, 36.6632 16.7253, 36.7898C16.7253, 36.8512 21.3148, 36.9777 26.9386, 37.0429C36.1818, 37.2308 37.2812, 37.1043 39.2198, 35.9039C44.8436, 32.4909 45.2315, 25.0282 39.9956, 21.4886C38.0562, 20.2231 37.0869, 20.0965 29.653, 20.0965L21.4441, 20.0965L20.3447, 24.3341C19.6982, 26.7347 19.0518, 29.074 18.9225, 29.5802C18.7932, 30.0864 16.0789, 31.8581 12.9116, 33.4995L7.2227, 36.4715L8.3863, 31.9195C8.9677, 29.3923 10.1313, 25.2199 10.8429, 22.6276C11.6187, 20.0352 12.5237, 16.3691 12.9758, 14.536L13.6865, 11.2457L26.8735, 11.2457C39.4783, 11.2457 40.1898, 11.3109 43.0985, 12.7643L43.0985, 12.7643zM43.0985, 12.7642" fill="#1177D7" id="svg_1" class="Blue" stroke="null" />
                                </g>
                              </g>
                            </g>
                          </g>
                        </g>
                      </g>
                    </g>
                  </g>
                </g>
              </g>
            </g>
          </g>
        </g>
      </g>
    </g>
  </g>
</svg>