<svg width="960" height="240" xmlns="http://www.w3.org/2000/svg">

 <g>
  <title>background</title>
  <rect fill="none" id="canvas_background" height="242" width="962" y="-1" x="-1"/>
 </g>
 <g>
  <title>Layer 1</title>
  <g stroke="null" id="surface1">
   <path stroke="null" id="svg_1" fill-rule="nonzero" fill="#ffffff" d="m6,117.418233l0,104.73073l184.54148,0l0,-209.461461l-184.54148,0l0,104.73073zm136.348045,-69.252754c17.801463,10.412015 28.665514,27.82964 33.434326,53.923957c4.779341,25.933623 -8.25331,56.430541 -29.307671,67.999446c-8.684923,4.691838 -13.253719,5.270287 -54.50974,5.270287l-44.940534,0l-2.810758,7.359107l-2.610741,7.359107l-10.42191,-18.735201c-5.85311,-10.026385 -9.769224,-19.410052 -8.684923,-20.374123c1.0843,-1.060481 9.55868,-6.684256 18.67522,-12.340166c16.506619,-10.122794 16.717163,-10.122794 14.759106,-4.016987c-1.294841,3.727767 -2.168598,6.716398 -2.168598,7.19843c0,0.257087 15.422319,0.739127 34.308083,0.931946c31.034126,0.77126 34.729167,0.289221 41.256019,-4.402609c18.885764,-13.272111 20.191134,-42.355052 2.600214,-56.141328c-6.526852,-4.948925 -9.769224,-5.430964 -34.750223,-5.430964l-27.560161,0l-3.705568,16.549964c-2.168598,9.351534 -4.337198,18.445981 -4.768812,20.470533c-0.421087,1.896017 -9.548154,8.773093 -20.180605,15.200262l-19.11736,11.568905l3.916111,-17.706854c1.947528,-9.833574 5.863639,-26.094308 8.242783,-36.249236c2.600212,-10.026385 5.642569,-24.391111 7.169009,-31.557399l2.389668,-12.725804l44.298377,0c42.340322,0 44.719464,0.192819 54.488687,5.848728zm0,0"/>
   <path stroke="null" id="svg_2" fill-rule="nonzero" fill="#ffffff" d="m255.683674,131.943637l0,35.960016l16.94876,0c19.738465,0 29.307671,-4.402617 36.687227,-16.935594c9.769224,-16.357153 4.558269,-39.687774 -10.653507,-48.589402c-4.337198,-2.667277 -14.116949,-4.659696 -24.94942,-5.430956l-18.03306,-1.2533l0,36.249236zm37.118841,-13.593466c3.484495,3.277861 5.010935,7.19843 5.010935,13.400647c0,12.050945 -5.442552,18.15676 -17.3909,19.410052l-9.548154,0.77126l0,-38.145253l8.463853,0c5.000409,0 10.421908,1.896017 13.464265,4.563295zm0,0"/>
   <path stroke="null" id="svg_3" fill-rule="nonzero" fill="#ffffff" d="m319.299428,99.90419c0.652684,1.73534 5.653095,11.086874 11.074594,20.952581c9.127064,15.778695 9.979767,19.024422 9.979767,32.328659l0,14.718222l15.201249,0l0,-13.497064c0,-12.147346 1.094827,-15.296655 11.937822,-34.224676c6.526852,-11.376086 11.948351,-21.531014 11.948351,-22.205865c0,-0.739127 -3.463442,-1.510387 -7.590097,-1.510387c-6.737396,0 -8.484909,1.510387 -14.548565,12.340166c-7.821693,13.272103 -9.77975,14.525403 -12.169421,7.841147c-0.863227,-2.217371 -3.463442,-7.841147 -5.863639,-12.243756c-3.463442,-6.684256 -5.421499,-7.937556 -12.590508,-7.937556c-6.295255,0 -8.25331,1.060481 -7.379553,3.43853zm0,0"/>
   <path stroke="null" id="svg_4" fill-rule="nonzero" fill="#ffffff" d="m385.957536,132.232857l0,35.670795l14.96965,0l0.663213,-19.892092l0.652684,-20.277722l13.022125,19.506462c11.074594,16.260735 14.327492,19.699273 20.20166,20.181312l6.93741,0.77126l0,-71.727212l-14.980179,0l-1.294841,39.398545l-13.695864,-19.699273c-11.506208,-16.742775 -14.316966,-19.699273 -19.970061,-19.699273l-6.505796,0l0,35.767197zm0,0"/>
   <path stroke="null" id="svg_5" fill-rule="nonzero" fill="#ffffff" d="m469.553876,113.015617c-3.484497,9.351532 -8.463852,22.366549 -11.306193,29.532846c-10.190311,26.12645 -10.190311,25.35519 -1.515913,25.35519c6.726869,0 8.042769,-0.964079 10.211366,-7.359115c2.379143,-7.166297 3.042353,-7.359107 15.201249,-7.359107c12.148365,0 12.790525,0.19281 15.190721,7.359107c1.958055,6.105815 3.695041,7.359115 9.548154,7.359115c3.916109,0 7.16901,-0.964079 7.16901,-2.185246c0,-2.217372 -4.337198,-15.039568 -10.632455,-31.107501c-2.168598,-5.334546 -6.084709,-16.260735 -8.895466,-24.101882c-4.779342,-12.790062 -5.653095,-14.043363 -11.94835,-14.043363c-6.526853,0 -7.379554,1.06048 -13.022124,16.549956zm0,0"/>
   <path stroke="null" id="svg_6" fill-rule="nonzero" fill="#ffffff" d="m522.747721,132.232857l0,35.670795l14.969652,0l0.663213,-20.181321l0.642157,-20.470533l7.379553,13.111426c4.126655,7.069887 8.03224,12.340166 8.905996,11.086874c0.873754,-1.060489 4.768812,-7.648336 8.463851,-14.332592l6.726869,-12.340166l0,43.126312l15.201249,0l0,-71.437992l-7.590097,0c-6.295253,0 -8.695453,1.510387 -14.116949,10.122786c-3.473971,5.655909 -6.958468,12.340166 -7.811169,15.039585c-1.0843,4.177656 -2.610741,2.667269 -9.77975,-10.154936c-7.590097,-13.754135 -8.895467,-15.007435 -16.064479,-15.007435l-7.590097,0l0,35.767197zm0,0"/>
   <path stroke="null" id="svg_7" fill-rule="nonzero" fill="#ffffff" d="m611.755035,115.490083c-3.905585,10.508424 -8.674397,23.13781 -10.42191,27.82964c-3.042355,8.323187 -6.947937,18.928021 -8.674397,22.655771c-0.44214,1.2533 2.810758,1.928159 7.147956,1.928159c6.958468,0 8.25331,-0.96408 10.42191,-7.359115c2.400197,-7.166296 3.042355,-7.359107 15.201249,-7.359107c12.169421,0 12.611561,0.192811 14.769635,7.359107c1.968581,6.105815 3.463442,7.359115 9.77975,7.359115c7.80064,0 9.316554,-3.438538 5.189899,-11.761724c-1.294844,-2.281647 -5.621513,-13.593466 -9.748168,-25.162371c-13.685338,-36.731276 -12.390494,-34.513897 -19.770047,-34.513897c-6.084709,0 -6.937413,1.2533 -13.895879,19.024422zm0,0"/>
   <path stroke="null" id="svg_8" fill-rule="nonzero" fill="#ffffff" d="m661.69598,105.078068c0,8.419588 0.210544,8.708809 8.69545,8.708809l8.674397,0l0,54.116776l17.380376,0l0,-54.116776l8.674397,0c8.463853,0 8.684926,-0.289221 8.684926,-8.708809l0,-8.612407l-52.109546,0l0,8.612407zm0,0"/>
   <path stroke="null" id="svg_9" fill-rule="nonzero" fill="#ffffff" d="m722.479923,132.232857l0,35.670795l15.211775,0l0,-71.437992l-15.211775,0l0,35.767197zm0,0"/>
   <path stroke="null" id="svg_10" fill-rule="nonzero" fill="#ffffff" d="m765.91507,100.964679c-16.296076,9.062305 -22.149188,32.232257 -12.811578,49.714159c5.853112,10.829779 9.548154,14.075497 19.970061,17.224814c9.55868,3.245719 23.233489,-0.48204 29.097128,-7.841155c3.473968,-4.49901 3.473968,-4.98105 -0.652687,-9.672888c-4.126655,-4.402609 -4.768812,-4.659696 -10.853521,-0.931938c-8.463853,4.948916 -12.158894,4.659696 -19.11736,-1.446111c-4.547742,-4.016979 -5.632042,-7.166296 -5.632042,-15.585884c0,-16.260743 9.990294,-23.61985 23.222959,-17.514043c7.169012,3.438538 8.25331,3.438538 11.948351,-0.192811c5.642569,-6.202217 4.768815,-9.833574 -3.484495,-14.332592c-9.548154,-5.173869 -22.138662,-4.884649 -31.686815,0.578449zm0,0"/>
   <path stroke="null" id="svg_11" fill-rule="nonzero" fill="#ffffff" d="m827.78331,99.422159c-6.93741,4.209798 -9.769224,9.672888 -9.769224,19.506453c0,10.540558 5.432025,16.260743 21.275434,21.916652c6.295253,2.185238 9.13759,4.402609 8.69545,7.166296c-0.873757,5.36668 -9.127066,6.105807 -17.35932,1.735332c-6.295255,-3.759892 -7.179539,-3.759892 -10.864051,0c-5.653095,6.105815 -4.779341,9.833574 3.252898,13.946962c11.737807,6.23435 19.970061,7.166288 28.223371,3.245719c7.379553,-3.438538 14.548565,-14.236183 14.548565,-21.88451c0,-7.455517 -8.695453,-15.778703 -20.633274,-19.988501c-7.147956,-2.699411 -11.927295,-5.94513 -11.927295,-7.841147c0,-5.752319 5.863639,-6.71639 14.759106,-2.795813c7.821696,3.43853 8.463853,3.43853 10.864051,-0.931946c4.126655,-7.19843 3.252898,-9.672888 -5.000412,-13.593466c-8.69545,-4.20979 -19.980588,-4.402609 -26.065299,-0.482032zm0,0"/>
   <path stroke="null" id="svg_12" fill-rule="nonzero" fill="#ffffff" d="m913.558779,118.639392c0,19.506462 0,19.699281 5.421499,19.699281c4.989882,0 5.421499,-0.931946 5.421499,-10.604834l0.231597,-10.315605l3.684515,6.684256c1.958054,3.920569 4.126655,6.877067 4.989882,6.877067c0.663213,0 2.600214,-2.956498 4.347728,-6.877067l3.042355,-6.684256l0.652684,10.315605c0.642157,8.708817 1.515914,10.604834 4.979359,10.604834c3.695038,0 4.126655,-1.703206 4.126655,-19.699281c0,-19.217233 0,-19.699273 -5.421499,-19.699273c-3.916111,0 -6.295255,2.217371 -8.895467,7.841147l-3.695041,8.130367l-3.263427,-8.130367c-2.610741,-6.105815 -4.779339,-7.841147 -9.548151,-7.841147l-6.074185,0l0,19.699273zm0,0"/>
  </g>
 </g>
</svg>